<?xml version="1.0" encoding="UTF-8" standalone="no"?>
<svg
   xmlns:dc="http://purl.org/dc/elements/1.1/"
   xmlns:cc="http://creativecommons.org/ns#"
   xmlns:rdf="http://www.w3.org/1999/02/22-rdf-syntax-ns#"
   xmlns:svg="http://www.w3.org/2000/svg"
   xmlns="http://www.w3.org/2000/svg"
   xmlns:xlink="http://www.w3.org/1999/xlink"
   width="48px"
   height="48px"
   id="svg_download"
   version="1.1">
  <defs id="defs3">
    <linearGradient id="linearGradient_cloud">
      <stop style="stop-color:#ffffff;stop-opacity:1;" offset="0" id="stop1" />
      <stop style="stop-color:#e6e6e6;stop-opacity:1;" offset="0.5" id="stop2" />
      <stop style="stop-color:#cccccc;stop-opacity:1;" offset="1" id="stop3" />
    </linearGradient>
    <linearGradient id="linearGradient_arrow">
      <stop style="stop-color:#3465a4;stop-opacity:1;" offset="0" id="stop4" />
      <stop style="stop-color:#729fcf;stop-opacity:1;" offset="1" id="stop5" />
    </linearGradient>
    <radialGradient
       xlink:href="#linearGradient_cloud"
       id="radialGradient_cloud"
       cx="24"
       cy="16"
       fx="24"
       fy="16"
       r="18"
       gradientUnits="userSpaceOnUse" />
    <linearGradient
       xlink:href="#linearGradient_arrow"
       id="linearGradient_arrow_fill"
       x1="24"
       y1="20"
       x2="24"
       y2="38"
       gradientUnits="userSpaceOnUse" />
  </defs>
  <metadata id="metadata4">
    <rdf:RDF>
      <cc:Work rdf:about="">
        <dc:format>image/svg+xml</dc:format>
        <dc:type rdf:resource="http://purl.org/dc/dcmitype/StillImage" />
        <dc:title>Download from Cloud</dc:title>
        <dc:creator>
          <cc:Agent>
            <dc:title>Claude</dc:title>
          </cc:Agent>
        </dc:creator>
        <dc:subject>
          <rdf:Bag>
            <rdf:li>download</rdf:li>
            <rdf:li>cloud</rdf:li>
            <rdf:li>internet</rdf:li>
            <rdf:li>artwork</rdf:li>
          </rdf:Bag>
        </dc:subject>
        <cc:license rdf:resource="http://creativecommons.org/licenses/publicdomain/" />
      </cc:Work>
    </rdf:RDF>
  </metadata>
  
  <!-- Cloud shape -->
  <path
     style="fill:url(#radialGradient_cloud);stroke:#999999;stroke-width:1.5;stroke-opacity:1"
     d="M 12,18 C 8,18 6,15 6,12 C 6,8 9,6 13,6 C 15,6 17,7 18,8.5 C 19,6 22,4 26,4 C 31,4 35,8 35,13 C 35,15 34,16.5 32.5,17.5 C 36,18 38,20 38,23 C 38,26 35,28 32,28 L 15,28 C 12,28 10,26 10,23 C 10,20.5 11,19 12,18 z"
     id="cloud" />
  
  <!-- Download arrow -->
  <g id="download_arrow">
    <!-- Arrow shaft -->
    <rect
       style="fill:url(#linearGradient_arrow_fill);stroke:#204a87;stroke-width:1.5"
       x="18"
       y="18"
       width="12"
       height="18"
       rx="2"
       ry="2"
       id="arrow_shaft" />
    
    <!-- Arrow head -->
    <path
       style="fill:url(#linearGradient_arrow_fill);stroke:#204a87;stroke-width:1.5;stroke-linejoin:round"
       d="M 12,30 L 24,42 L 36,30 L 30,30 L 30,28 L 18,28 L 18,30 Z"
       id="arrow_head" />
  </g>
  
  <!-- Small progress dots to indicate download activity -->
  <circle cx="14" cy="34" r="1.5" fill="#729fcf" opacity="0.8" id="dot1" />
  <circle cx="18" cy="36" r="1.5" fill="#729fcf" opacity="0.6" id="dot2" />
  <circle cx="22" cy="37" r="1.5" fill="#729fcf" opacity="0.4" id="dot3" />
</svg>