<?xml version="1.0" encoding="UTF-8"?>
<svg xmlns="http://www.w3.org/2000/svg" xmlns:xlink="http://www.w3.org/1999/xlink" width="128px" height="128px" viewBox="0 0 128 128" version="1.1">
<g id="surface1">
<path style=" stroke:none;fill-rule:nonzero;fill:rgb(13.725491%,14.901961%,16.078432%);fill-opacity:1;" d="M 64 16 C 37.492188 16 16 37.492188 16 64 C 16 90.507812 37.492188 112 64 112 C 90.507812 112 112 90.507812 112 64 C 112 37.492188 90.507812 16 64 16 Z M 64 24 C 86.089844 24 104 41.910156 104 64 C 104 86.089844 86.089844 104 64 104 C 41.910156 104 24 86.089844 24 64 C 24 41.910156 41.910156 24 64 24 Z M 64 48 C 55.164062 48 48 55.164062 48 64 C 48 72.835938 55.164062 80 64 80 C 72.835938 80 80 72.835938 80 64 C 80 55.164062 72.835938 48 64 48 Z M 64 56 C 68.417969 56 72 59.582031 72 64 C 72 68.417969 68.417969 72 64 72 C 59.582031 72 56 68.417969 56 64 C 56 59.582031 59.582031 56 64 56 Z M 64 56 "/>
</g>
</svg>
