<?xml version="1.0" encoding="UTF-8"?>
<svg xmlns="http://www.w3.org/2000/svg" xmlns:xlink="http://www.w3.org/1999/xlink" width="128px" height="128px" viewBox="0 0 128 128" version="1.1">
<g id="surface1">
<path style=" stroke:none;fill-rule:nonzero;fill:rgb(13.725491%,14.901961%,16.078432%);fill-opacity:1;" d="M 112 64 C 112 72.871094 109.445312 81.121094 105.25 88.25 L 83.75 66.75 L 89.5 61 L 102.5 74 C 102.910156 72.4375 103.28125 70.882812 103.5 69.25 C 103.5625 68.832031 103.703125 68.421875 103.75 68 C 103.886719 66.65625 104 65.378906 104 64 C 104 41.910156 86.089844 24 64 24 C 62.054688 24 60.117188 24.226562 58.25 24.5 C 57.160156 24.660156 56.058594 24.753906 55 25 C 52.707031 25.535156 50.617188 26.332031 48.5 27.25 C 48.253906 27.355469 47.992188 27.390625 47.75 27.5 C 47.015625 27.828125 46.441406 28.367188 45.75 28.75 C 45.6875 28.785156 45.566406 28.714844 45.5 28.75 L 39.75 22.75 C 46.878906 18.554688 55.128906 16 64 16 C 90.507812 16 112 37.492188 112 64 Z M 88.25 105.25 C 81.121094 109.445312 72.871094 112 64 112 C 37.492188 112 16 90.507812 16 64 C 16 55.128906 18.554688 46.878906 22.75 39.75 L 28.75 45.75 L 44 61.25 L 38.5 66.75 L 25.5 54 C 25.089844 55.5625 24.71875 57.117188 24.5 58.75 C 24.4375 59.167969 24.296875 59.578125 24.25 60 C 24.113281 61.34375 24 62.621094 24 64 C 24 65.378906 24.113281 66.65625 24.25 68 C 24.386719 69.34375 24.484375 70.699219 24.75 72 C 28.480469 90.226562 44.671875 104 64 104 C 65.984375 104 67.839844 103.78125 69.75 103.5 C 70.839844 103.339844 71.941406 103.246094 73 103 C 75.292969 102.464844 77.382812 101.667969 79.5 100.75 C 79.746094 100.644531 80.007812 100.609375 80.25 100.5 C 80.960938 100.175781 81.566406 99.632812 82.25 99.25 L 82.5 99.25 Z M 88.25 105.25 "/>
</g>
</svg>
